<svg width="256" height="256" viewBox="0 0 256 256" fill="none" xmlns="http://www.w3.org/2000/svg">
<rect width="256" height="256" fill="#29211F"/>
<path d="M32.89 53.315C31.2567 53.315 29.8917 52.965 28.795 52.265C27.7217 51.565 26.905 50.5967 26.345 49.36C25.785 48.1233 25.4583 46.6883 25.365 45.055L28.865 44.11C28.935 45.1133 29.0867 46.0817 29.32 47.015C29.5767 47.9483 29.985 48.7183 30.545 49.325C31.105 49.9083 31.8867 50.2 32.89 50.2C33.9167 50.2 34.6867 49.92 35.2 49.36C35.7367 48.7767 36.005 47.9483 36.005 46.875C36.005 45.5917 35.7133 44.565 35.13 43.795C34.5467 43.0017 33.8117 42.2083 32.925 41.415L28.165 37.215C27.2317 36.3983 26.5433 35.5117 26.1 34.555C25.6567 33.575 25.435 32.3733 25.435 30.95C25.435 28.8733 26.03 27.2633 27.22 26.12C28.41 24.9767 30.0317 24.405 32.085 24.405C33.205 24.405 34.185 24.5567 35.025 24.86C35.8883 25.14 36.6 25.5833 37.16 26.19C37.7433 26.7967 38.1983 27.5667 38.525 28.5C38.875 29.41 39.1083 30.4833 39.225 31.72L35.865 32.63C35.795 31.6967 35.655 30.845 35.445 30.075C35.235 29.2817 34.8617 28.6517 34.325 28.185C33.8117 27.695 33.065 27.45 32.085 27.45C31.105 27.45 30.335 27.7183 29.775 28.255C29.2383 28.7683 28.97 29.5383 28.97 30.565C28.97 31.4283 29.11 32.14 29.39 32.7C29.6933 33.26 30.1717 33.8317 30.825 34.415L35.62 38.615C36.6933 39.5483 37.6383 40.6683 38.455 41.975C39.2717 43.2583 39.68 44.7867 39.68 46.56C39.68 47.96 39.3883 49.1733 38.805 50.2C38.2217 51.2033 37.4167 51.9733 36.39 52.51C35.3867 53.0467 34.22 53.315 32.89 53.315ZM42.678 53V32.77H46.423V53H42.678ZM42.678 29.76V25.84H46.423V29.76H42.678ZM50.431 53V32.77H53.896V34.695C54.5727 33.925 55.3193 33.3533 56.136 32.98C56.9527 32.6067 57.7927 32.42 58.656 32.42C59.4027 32.42 60.0677 32.6067 60.651 32.98C61.2577 33.3533 61.6893 34.0183 61.946 34.975C62.6693 34.0883 63.451 33.4467 64.291 33.05C65.1543 32.63 66.0527 32.42 66.986 32.42C67.6393 32.42 68.2343 32.5833 68.771 32.91C69.3077 33.2133 69.7393 33.715 70.066 34.415C70.3927 35.0917 70.556 35.99 70.556 37.11V53H67.126V37.355C67.126 36.375 66.9627 35.7217 66.636 35.395C66.3327 35.045 65.9127 34.87 65.376 34.87C64.8627 34.87 64.326 35.0217 63.766 35.325C63.206 35.605 62.6927 36.0017 62.226 36.515C62.226 36.6083 62.226 36.7017 62.226 36.795C62.226 36.8883 62.226 36.9933 62.226 37.11V53H58.796V37.355C58.796 36.375 58.6327 35.7217 58.306 35.395C58.0027 35.045 57.5827 34.87 57.046 34.87C56.5327 34.87 55.996 35.0217 55.436 35.325C54.8993 35.605 54.386 36.0017 53.896 36.515V53H50.431ZM74.2201 59.65V32.77H77.9651V34.38C78.4084 33.8667 78.9451 33.4233 79.5751 33.05C80.2051 32.6767 80.9517 32.49 81.8151 32.49C82.8651 32.49 83.6934 32.77 84.3001 33.33C84.9301 33.8667 85.3967 34.555 85.7001 35.395C86.0034 36.2117 86.2017 37.0517 86.2951 37.915C86.3884 38.755 86.4351 39.4783 86.4351 40.085V44.985C86.4351 46.4083 86.2951 47.7617 86.0151 49.045C85.7351 50.305 85.2217 51.3317 84.4751 52.125C83.7517 52.895 82.7251 53.28 81.3951 53.28C80.6717 53.28 80.0301 53.105 79.4701 52.755C78.9101 52.3817 78.4084 51.9617 77.9651 51.495V59.65H74.2201ZM80.6601 50.34C81.3134 50.34 81.7801 50.1067 82.0601 49.64C82.3401 49.15 82.5151 48.4967 82.5851 47.68C82.6551 46.8633 82.6901 45.965 82.6901 44.985V40.085C82.6901 39.245 82.6434 38.475 82.5501 37.775C82.4567 37.0517 82.2584 36.48 81.9551 36.06C81.6517 35.64 81.1734 35.43 80.5201 35.43C80.0301 35.43 79.5634 35.535 79.1201 35.745C78.6767 35.955 78.2917 36.2 77.9651 36.48V49.43C78.3151 49.6867 78.7117 49.9083 79.1551 50.095C79.5984 50.2583 80.1001 50.34 80.6601 50.34ZM90.1902 53V24.65H93.9352V53H90.1902ZM103.438 53.28C101.852 53.28 100.627 52.9767 99.7632 52.37C98.8999 51.74 98.2932 50.83 97.9432 49.64C97.6166 48.4267 97.4532 46.945 97.4532 45.195V40.575C97.4532 38.7783 97.6282 37.285 97.9782 36.095C98.3282 34.905 98.9349 34.0067 99.7982 33.4C100.685 32.7933 101.898 32.49 103.438 32.49C105.142 32.49 106.39 32.84 107.183 33.54C108 34.24 108.537 35.255 108.793 36.585C109.05 37.8917 109.178 39.4667 109.178 41.31V42.955H101.198V47.015C101.198 47.8317 101.268 48.4967 101.408 49.01C101.572 49.5233 101.817 49.9083 102.143 50.165C102.493 50.3983 102.937 50.515 103.473 50.515C104.033 50.515 104.453 50.3867 104.733 50.13C105.037 49.85 105.235 49.465 105.328 48.975C105.445 48.4617 105.503 47.8667 105.503 47.19V45.965H109.143V46.735C109.143 48.765 108.712 50.3633 107.848 51.53C106.985 52.6967 105.515 53.28 103.438 53.28ZM101.198 40.925H105.503V39.105C105.503 38.265 105.457 37.565 105.363 37.005C105.27 36.4217 105.072 35.99 104.768 35.71C104.488 35.4067 104.033 35.255 103.403 35.255C102.797 35.255 102.33 35.395 102.003 35.675C101.7 35.955 101.49 36.4333 101.373 37.11C101.257 37.7633 101.198 38.6733 101.198 39.84V40.925ZM26.52 97V64.6H33.68V77.72H38.68V64.6H45.88V97H38.68V82.84H33.68V97H26.52ZM58.0141 97.4C56.3341 97.4 54.8941 97.1067 53.6941 96.52C52.4941 95.9067 51.5741 95.0267 50.9341 93.88C50.2941 92.7067 49.9741 91.3067 49.9741 89.68V81.2C49.9741 79.5467 50.2941 78.1467 50.9341 77C51.5741 75.8533 52.4941 74.9867 53.6941 74.4C54.9207 73.7867 56.3607 73.48 58.0141 73.48C59.7207 73.48 61.1341 73.7733 62.2541 74.36C63.4007 74.9467 64.2541 75.8133 64.8141 76.96C65.4007 78.1067 65.6941 79.52 65.6941 81.2V85.84H56.4141V90.28C56.4141 90.8667 56.4807 91.3467 56.6141 91.72C56.7474 92.0933 56.9341 92.36 57.1741 92.52C57.4141 92.68 57.6941 92.76 58.0141 92.76C58.3341 92.76 58.6141 92.6933 58.8541 92.56C59.1207 92.4 59.3207 92.16 59.4541 91.84C59.6141 91.52 59.6941 91.08 59.6941 90.52V88.08H65.6941V90.32C65.6941 92.6667 65.0141 94.44 63.6541 95.64C62.2941 96.8133 60.4141 97.4 58.0141 97.4ZM56.4141 82.8H59.6941V80.48C59.6941 79.8667 59.6141 79.3867 59.4541 79.04C59.3207 78.6933 59.1207 78.4533 58.8541 78.32C58.6141 78.1867 58.3207 78.12 57.9741 78.12C57.6541 78.12 57.3741 78.2 57.1341 78.36C56.9207 78.52 56.7474 78.8 56.6141 79.2C56.4807 79.5733 56.4141 80.12 56.4141 80.84V82.8ZM74.0031 97.4C72.8298 97.4 71.8431 97.12 71.0431 96.56C70.2431 96 69.6431 95.2933 69.2431 94.44C68.8431 93.56 68.6431 92.6667 68.6431 91.76C68.6431 90.32 68.9231 89.1067 69.4831 88.12C70.0698 87.1333 70.8298 86.3067 71.7631 85.64C72.6965 84.9733 73.7231 84.4133 74.8431 83.96C75.9631 83.48 77.0698 83.0533 78.1631 82.68V80.36C78.1631 79.96 78.1231 79.6133 78.0431 79.32C77.9631 79 77.8298 78.76 77.6431 78.6C77.4565 78.4133 77.1765 78.32 76.8031 78.32C76.4298 78.32 76.1365 78.4 75.9231 78.56C75.7365 78.72 75.6031 78.9467 75.5231 79.24C75.4431 79.5067 75.3898 79.8133 75.3631 80.16L75.2031 81.84L69.1231 81.6C69.2565 78.8267 69.9898 76.7867 71.3231 75.48C72.6831 74.1467 74.7098 73.48 77.4031 73.48C79.7498 73.48 81.4965 74.1333 82.6431 75.44C83.8165 76.72 84.4031 78.3867 84.4031 80.44V91.24C84.4031 92.2 84.4165 93.04 84.4431 93.76C84.4965 94.48 84.5498 95.1067 84.6031 95.64C84.6831 96.1733 84.7498 96.6267 84.8031 97H78.9631C78.8831 96.3867 78.7898 95.72 78.6831 95C78.5765 94.28 78.4965 93.8533 78.4431 93.72C78.1765 94.68 77.6698 95.5333 76.9231 96.28C76.2031 97.0267 75.2298 97.4 74.0031 97.4ZM76.3231 93C76.5898 93 76.8298 92.9467 77.0431 92.84C77.2831 92.7333 77.4965 92.5867 77.6831 92.4C77.8698 92.2133 78.0298 92.0267 78.1631 91.84V85.52C77.6298 85.84 77.1365 86.1733 76.6831 86.52C76.2298 86.84 75.8431 87.2 75.5231 87.6C75.2031 88 74.9498 88.44 74.7631 88.92C74.6031 89.3733 74.5231 89.8933 74.5231 90.48C74.5231 91.2533 74.6831 91.8667 75.0031 92.32C75.3231 92.7733 75.7631 93 76.3231 93ZM93.2666 97.4C91.5599 97.4 90.2399 96.8 89.3066 95.6C88.3732 94.4 87.9066 92.6267 87.9066 90.28V80.72C87.9066 79.28 88.1066 78.0267 88.5066 76.96C88.9066 75.8667 89.5066 75.0133 90.3066 74.4C91.1066 73.7867 92.0932 73.48 93.2666 73.48C94.1199 73.48 94.9332 73.6533 95.7066 74C96.4799 74.32 97.1866 74.76 97.8266 75.32V64.6H104.347V97H97.8266V95.2C97.1066 95.8933 96.3599 96.44 95.5866 96.84C94.8132 97.2133 94.0399 97.4 93.2666 97.4ZM96.1066 93.24C96.3199 93.24 96.5732 93.1867 96.8666 93.08C97.1866 92.9733 97.5066 92.8267 97.8266 92.64V78.04C97.5599 77.9067 97.2799 77.7867 96.9866 77.68C96.6932 77.5733 96.4132 77.52 96.1466 77.52C95.5599 77.52 95.1332 77.7733 94.8666 78.28C94.5999 78.76 94.4666 79.3467 94.4666 80.04V90.68C94.4666 91.16 94.5199 91.6 94.6266 92C94.7332 92.3733 94.9066 92.68 95.1466 92.92C95.3866 93.1333 95.7066 93.24 96.1066 93.24ZM115.944 97.4C114.264 97.4 112.824 97.1067 111.624 96.52C110.424 95.9067 109.504 95.0267 108.864 93.88C108.224 92.7067 107.904 91.3067 107.904 89.68V81.2C107.904 79.5467 108.224 78.1467 108.864 77C109.504 75.8533 110.424 74.9867 111.624 74.4C112.85 73.7867 114.29 73.48 115.944 73.48C117.65 73.48 119.064 73.7733 120.184 74.36C121.33 74.9467 122.184 75.8133 122.744 76.96C123.33 78.1067 123.624 79.52 123.624 81.2V85.84H114.344V90.28C114.344 90.8667 114.41 91.3467 114.544 91.72C114.677 92.0933 114.864 92.36 115.104 92.52C115.344 92.68 115.624 92.76 115.944 92.76C116.264 92.76 116.544 92.6933 116.784 92.56C117.05 92.4 117.25 92.16 117.384 91.84C117.544 91.52 117.624 91.08 117.624 90.52V88.08H123.624V90.32C123.624 92.6667 122.944 94.44 121.584 95.64C120.224 96.8133 118.344 97.4 115.944 97.4ZM114.344 82.8H117.624V80.48C117.624 79.8667 117.544 79.3867 117.384 79.04C117.25 78.6933 117.05 78.4533 116.784 78.32C116.544 78.1867 116.25 78.12 115.904 78.12C115.584 78.12 115.304 78.2 115.064 78.36C114.85 78.52 114.677 78.8 114.544 79.2C114.41 79.5733 114.344 80.12 114.344 80.84V82.8ZM127.253 97V73.88H133.773V77.72C134.519 76.3867 135.266 75.3733 136.013 74.68C136.759 73.96 137.666 73.6 138.733 73.6C138.946 73.6 139.133 73.6133 139.293 73.64C139.453 73.64 139.599 73.6667 139.733 73.72V80.2C139.439 80.0667 139.106 79.96 138.733 79.88C138.386 79.7733 138.013 79.72 137.613 79.72C136.866 79.72 136.173 79.92 135.533 80.32C134.893 80.72 134.306 81.2667 133.773 81.96V97H127.253Z" fill="#FFDD00"/>
<path d="M23.475 128L27.775 107.75H30.5L34.825 128H32.15L31.225 122.9H27.1L26.125 128H23.475ZM27.475 120.875H30.85L29.15 111.75L27.475 120.875ZM36.6547 128V113.55H39.3297V114.975C39.813 114.525 40.3464 114.142 40.9297 113.825C41.513 113.508 42.1547 113.35 42.8547 113.35C43.438 113.35 43.8797 113.5 44.1797 113.8C44.4964 114.1 44.713 114.475 44.8297 114.925C44.963 115.375 45.0297 115.833 45.0297 116.3V128H42.3547V117.075C42.3547 116.558 42.2797 116.158 42.1297 115.875C41.9797 115.592 41.6714 115.45 41.2047 115.45C40.9047 115.45 40.588 115.542 40.2547 115.725C39.938 115.892 39.6297 116.1 39.3297 116.35V128H36.6547ZM50.991 128.2C49.7743 128.2 48.866 127.758 48.266 126.875C47.666 125.975 47.366 124.458 47.366 122.325V119.525C47.366 118.425 47.4577 117.408 47.641 116.475C47.8243 115.525 48.166 114.767 48.666 114.2C49.1827 113.633 49.9327 113.35 50.916 113.35C51.3993 113.35 51.841 113.458 52.241 113.675C52.641 113.892 52.9993 114.158 53.316 114.475V107.75H55.991V128H53.316V127.075C52.9993 127.408 52.6493 127.683 52.266 127.9C51.8993 128.1 51.4743 128.2 50.991 128.2ZM51.666 126.1C51.916 126.1 52.1827 126.058 52.466 125.975C52.7493 125.875 53.0327 125.733 53.316 125.55V116.075C53.0827 115.908 52.8243 115.767 52.541 115.65C52.2577 115.517 51.9493 115.45 51.616 115.45C50.9993 115.45 50.5827 115.75 50.366 116.35C50.1493 116.933 50.041 117.642 50.041 118.475V122.55C50.041 123.217 50.0743 123.825 50.141 124.375C50.2243 124.908 50.3827 125.333 50.616 125.65C50.8493 125.95 51.1993 126.1 51.666 126.1ZM25.4 172V139.6H39.4V144.44H32.56V152.6H38.52V157.6H32.56V172H25.4ZM49.9838 172.4C48.3304 172.4 46.8904 172.12 45.6638 171.56C44.4638 171 43.5304 170.16 42.8638 169.04C42.2238 167.92 41.9038 166.52 41.9038 164.84V156.04C41.9038 154.36 42.2238 152.96 42.8638 151.84C43.5304 150.72 44.4638 149.88 45.6638 149.32C46.8904 148.76 48.3304 148.48 49.9838 148.48C51.6371 148.48 53.0638 148.76 54.2638 149.32C55.4904 149.88 56.4371 150.72 57.1038 151.84C57.7704 152.96 58.1038 154.36 58.1038 156.04V164.84C58.1038 166.52 57.7704 167.92 57.1038 169.04C56.4371 170.16 55.4904 171 54.2638 171.56C53.0638 172.12 51.6371 172.4 49.9838 172.4ZM50.0238 168.08C50.4504 168.08 50.7838 167.973 51.0238 167.76C51.2638 167.52 51.4238 167.2 51.5038 166.8C51.6104 166.373 51.6638 165.867 51.6638 165.28V155.6C51.6638 155.013 51.6104 154.52 51.5038 154.12C51.4238 153.693 51.2638 153.373 51.0238 153.16C50.7838 152.92 50.4504 152.8 50.0238 152.8C49.5971 152.8 49.2638 152.92 49.0238 153.16C48.7838 153.373 48.6104 153.693 48.5038 154.12C48.3971 154.52 48.3438 155.013 48.3438 155.6V165.28C48.3438 165.867 48.3971 166.373 48.5038 166.8C48.6104 167.2 48.7838 167.52 49.0238 167.76C49.2638 167.973 49.5971 168.08 50.0238 168.08ZM69.3197 172.4C67.6664 172.4 66.2264 172.12 64.9997 171.56C63.7997 171 62.8664 170.16 62.1997 169.04C61.5597 167.92 61.2397 166.52 61.2397 164.84V156.04C61.2397 154.36 61.5597 152.96 62.1997 151.84C62.8664 150.72 63.7997 149.88 64.9997 149.32C66.2264 148.76 67.6664 148.48 69.3197 148.48C70.973 148.48 72.3997 148.76 73.5997 149.32C74.8264 149.88 75.773 150.72 76.4397 151.84C77.1064 152.96 77.4397 154.36 77.4397 156.04V164.84C77.4397 166.52 77.1064 167.92 76.4397 169.04C75.773 170.16 74.8264 171 73.5997 171.56C72.3997 172.12 70.973 172.4 69.3197 172.4ZM69.3597 168.08C69.7864 168.08 70.1197 167.973 70.3597 167.76C70.5997 167.52 70.7597 167.2 70.8397 166.8C70.9464 166.373 70.9997 165.867 70.9997 165.28V155.6C70.9997 155.013 70.9464 154.52 70.8397 154.12C70.7597 153.693 70.5997 153.373 70.3597 153.16C70.1197 152.92 69.7864 152.8 69.3597 152.8C68.933 152.8 68.5997 152.92 68.3597 153.16C68.1197 153.373 67.9464 153.693 67.8397 154.12C67.733 154.52 67.6797 155.013 67.6797 155.6V165.28C67.6797 165.867 67.733 166.373 67.8397 166.8C67.9464 167.2 68.1197 167.52 68.3597 167.76C68.5997 167.973 68.933 168.08 69.3597 168.08ZM88.2156 172.24C86.4823 172.24 85.1356 171.987 84.1756 171.48C83.2423 170.973 82.6023 170.24 82.2556 169.28C81.909 168.293 81.7356 167.107 81.7356 165.72V153.16H79.4956V148.88H81.7356V141.84H88.3356V148.88H91.6156V153.16H88.3356V165.08C88.3356 165.747 88.5223 166.227 88.8956 166.52C89.2956 166.813 89.789 166.96 90.3756 166.96C90.7223 166.96 91.0423 166.947 91.3356 166.92C91.629 166.867 91.8956 166.827 92.1356 166.8V171.92C91.789 171.973 91.2423 172.04 90.4956 172.12C89.749 172.2 88.989 172.24 88.2156 172.24ZM102.756 172.4C101.076 172.4 99.6363 172.107 98.4362 171.52C97.2363 170.907 96.3163 170.027 95.6763 168.88C95.0363 167.707 94.7163 166.307 94.7163 164.68V156.2C94.7163 154.547 95.0363 153.147 95.6763 152C96.3163 150.853 97.2363 149.987 98.4362 149.4C99.6629 148.787 101.103 148.48 102.756 148.48C104.463 148.48 105.876 148.773 106.996 149.36C108.143 149.947 108.996 150.813 109.556 151.96C110.143 153.107 110.436 154.52 110.436 156.2V160.84H101.156V165.28C101.156 165.867 101.223 166.347 101.356 166.72C101.49 167.093 101.676 167.36 101.916 167.52C102.156 167.68 102.436 167.76 102.756 167.76C103.076 167.76 103.356 167.693 103.596 167.56C103.863 167.4 104.063 167.16 104.196 166.84C104.356 166.52 104.436 166.08 104.436 165.52V163.08H110.436V165.32C110.436 167.667 109.756 169.44 108.396 170.64C107.036 171.813 105.156 172.4 102.756 172.4ZM101.156 157.8H104.436V155.48C104.436 154.867 104.356 154.387 104.196 154.04C104.063 153.693 103.863 153.453 103.596 153.32C103.356 153.187 103.063 153.12 102.716 153.12C102.396 153.12 102.116 153.2 101.876 153.36C101.663 153.52 101.49 153.8 101.356 154.2C101.223 154.573 101.156 155.12 101.156 155.84V157.8ZM114.065 172V148.88H120.585V152.72C121.332 151.387 122.079 150.373 122.825 149.68C123.572 148.96 124.479 148.6 125.545 148.6C125.759 148.6 125.945 148.613 126.105 148.64C126.265 148.64 126.412 148.667 126.545 148.72V155.2C126.252 155.067 125.919 154.96 125.545 154.88C125.199 154.773 124.825 154.72 124.425 154.72C123.679 154.72 122.985 154.92 122.345 155.32C121.705 155.72 121.119 156.267 120.585 156.96V172H114.065Z" fill="#FFDD00"/>
</svg>
